PathFileType	4	(X/Y/Z)	/Users/niels/Desktop/University/Third Semester/Perception and Action/Exam/Gymnastics Motion Tracking/Code for Gym Tracking/Analyzed Data/Webcam_Backflip/id2000_1_baseline_Sports2D/id2000_1_baseline_Sports2D_px_person00.trc
DataRate	CameraRate	NumFrames	NumMarkers	Units	OrigDataRate	OrigDataStartFrame	OrigNumFrames
29.88372093023256	29.88372093023256	8	22	m	29.88372093023256	96	258
Frame#	Time	Hip			RHip			RKnee			RAnkle			RBigToe			RSmallToe			RHeel			LHip			LKnee			LAnkle			LBigToe			LSmallToe			LHeel			Neck			Head			Nose			RShoulder			RElbow			RWrist			LShoulder			LElbow			LWrist		
		X1	Y1	Z1	X2	Y2	Z2	X3	Y3	Z3	X4	Y4	Z4	X5	Y5	Z5	X6	Y6	Z6	X7	Y7	Z7	X8	Y8	Z8	X9	Y9	Z9	X10	Y10	Z10	X11	Y11	Z11	X12	Y12	Z12	X13	Y13	Z13	X14	Y14	Z14	X15	Y15	Z15	X16	Y16	Z16	X17	Y17	Z17	X18	Y18	Z18	X19	Y19	Z19	X20	Y20	Z20	X21	Y21	Z21	X22	Y22	Z22
96	3.2124513618677044	0.92565045314724	-0.5386330182286256	0.0	0.8846680254294403	-0.5425997543138793	0.0	1.0950336434406003	-0.9023282488865717	0.0	1.0525270905678705	-1.0682391068233956	0.0	1.268631284915604	-1.0755930465725383	0.0	1.1115632514966052	-1.1787894848579321	0.0	1.0300975327198523	-1.078453323225758	0.0	0.9966159765167587	-0.5514011447383868	0.0	1.0867961435142508	-0.8837260294521341	0.0	1.1117059133800848	-1.0428814602615384	0.0	1.2128162934400948	-1.0660176304828888	0.0	1.1948658224886013	-1.0534606008248546	0.0	1.0332751377297753	-1.0512487413150169	0.0	1.1535519498595013	-0.1391455520885402	0.0	1.3070068159153372	-0.05620591180101415	0.0	1.2811472387914817	-0.06395040636069073	0.0	1.1274740801534773	-0.14336112363797826	0.0	1.414071585401553	-0.1734572168244478	0.0	1.636691299357058	-0.08766400755832565	0.0	1.1517856325071467	-0.16991692768832156	0.0	1.3947502373966147	-0.15874555338001128	0.0	1.5853330527525664	-0.10188050300749416	0.0
97	3.2459143968871595	0.9165069860269589	-0.5383015967169058	0.0	0.8768910234083793	-0.5413448381363904	0.0	1.0866734616145262	-0.899150946237664	0.0	1.0499243648152685	-1.0693623977710116	0.0	1.2705276446521745	-1.0746876570769281	0.0	1.12673057339538	-1.156997945761985	0.0	1.0246144468138667	-1.0785303379137778	0.0	0.9868795388441153	-0.5506323156362877	0.0	1.0735798520729394	-0.8769254743705948	0.0	1.1039727833058721	-1.0405934468025009	0.0	1.211105298386894	-1.0623792079532053	0.0	1.1927301557835555	-1.049620152275253	0.0	1.0289757659650225	-1.0486160359518155	0.0	1.1628411374794398	-0.1506719002404032	0.0	1.323127448492656	-0.051232470173995924	0.0	1.291824988495519	-0.07698245045875554	0.0	1.1329935946492977	-0.15741279159044463	0.0	1.4110072121858042	-0.19967455783405247	0.0	1.6445185119862946	-0.11547299693149086	0.0	1.1533444253400071	-0.1813983497788133	0.0	1.3955963231788873	-0.18698650561810404	0.0	1.5916178325522528	-0.12995228518086133	0.0
98	3.2793774319066147	0.9090798532054836	-0.5387417093097163	0.0	0.870657609842686	-0.5417226328672528	0.0	1.0800896601261303	-0.8960838160484293	0.0	1.0478625271553035	-1.0701418007639585	0.0	1.2677435234033658	-1.0735430214387605	0.0	1.144060222145893	-1.1326989589719978	0.0	1.0194696440408926	-1.0780643694578562	0.0	0.9784771226859709	-0.5511249615352303	0.0	1.0628837179729942	-0.8716650297015582	0.0	1.096919992720441	-1.03875210395934	0.0	1.210806607881292	-1.0590722434679642	0.0	1.191835968007392	-1.0470478070748217	0.0	1.023423499734481	-1.046665891163426	0.0	1.1713612772251887	-0.16183968822101286	0.0	1.3346209871055108	-0.043878023063728726	0.0	1.3003198716652113	-0.09176479915487178	0.0	1.1369455811247982	-0.17294626180649222	0.0	1.4071161478883092	-0.22848036482866402	0.0	1.6443886980394467	-0.1463284198007176	0.0	1.156446197047256	-0.1925263701009518	0.0	1.3959795719372001	-0.21977925180892383	0.0	1.5897678916412574	-0.16195020605677982	0.0
99	3.31284046692607	0.9030692397761713	-0.5401255422152386	0.0	0.8654293877106328	-0.5436230523734411	0.0	1.07510433161368	-0.8931411578258711	0.0	1.0460449203238882	-1.0704136244578477	0.0	1.2611538951351715	-1.0720453395974345	0.0	1.1597714146834766	-1.111620984252856	0.0	1.0143693080651863	-1.077469492209819	0.0	0.9719167817058061	-0.5529378744861728	0.0	1.05591039086298	-0.8689163311159036	0.0	1.0902168503111649	-1.037893122008264	0.0	1.2113135359596066	-1.0560345989563094	0.0	1.191371288693818	-1.0453127017909665	0.0	1.0128711641169705	-1.0456016779471389	0.0	1.1790226142892477	-0.1736368592718599	0.0	1.3429347341540683	-0.0375435817522367	0.0	1.3073154542682541	-0.10826470862570421	0.0	1.1396939033145377	-0.1895586758650936	0.0	1.4036285911088657	-0.2601112961626669	0.0	1.6375174656209905	-0.17917323913516403	0.0	1.1610066612273342	-0.20439182784297558	0.0	1.3951162967067419	-0.25472374588810703	0.0	1.5815484037578371	-0.19570458094101104	0.0
100	3.3463035019455254	0.8979728581668608	-0.5422844358427917	0.0	0.8606825209317985	-0.5466571210776704	0.0	1.0714387902876583	-0.8900240436023057	0.0	1.0444784825279845	-1.0702752773209383	0.0	1.2521836213939324	-1.0704553302064224	0.0	1.1713148396746986	-1.097508417492557	0.0	1.0095211537240327	-1.077083841778698	0.0	0.9670658127451945	-0.55564454899571	0.0	1.052807014776248	-0.8684586121979467	0.0	1.0835333108608656	-1.0382738398659703	0.0	1.2120237983253037	-1.0536953984152557	0.0	1.1907400812146753	-1.0444371394196548	0.0	0.9977066158312388	-1.0458303169021523	0.0	1.1856887424493285	-0.18654374595692721	0.0	1.3496294231512425	-0.034771938394085336	0.0	1.313450339227954	-0.1262402423138987	0.0	1.141737604675085	-0.2067708097607694	0.0	1.401268274644411	-0.2944850904982032	0.0	1.6258670187749802	-0.21332231809730146	0.0	1.1662100075551916	-0.2173988770814711	0.0	1.3932166483863768	-0.2901340060303694	0.0	1.5696603869328347	-0.22948668895256238	0.0
101	3.3797665369649805	0.89327254531947	-0.5448371368086294	0.0	0.8559243380121604	-0.5502501724351513	0.0	1.0687142943989565	-0.8862973046440416	0.0	1.0433595082727856	-1.0699701849389602	0.0	1.242440912200418	-1.0692499098782358	0.0	1.1784495668447794	-1.0905708898155693	0.0	1.0054344166843758	-1.0771456045898395	0.0	0.9632445809634774	-0.5586154160623481	0.0	1.0526819677399388	-0.8689502468684782	0.0	1.0769362404988563	-1.0396777734032039	0.0	1.2123898134266398	-1.052677756533719	0.0	1.189837925277126	-1.044693984324107	0.0	0.9821534025152567	-1.0475813586385494	0.0	1.1914091541447842	-0.20063590548761615	0.0	1.3557021534955396	-0.03676055930299992	0.0	1.3191085825824784	-0.14535182179597544	0.0	1.1435574651288498	-0.2242193372664308	0.0	1.3998276834348495	-0.3311941964870322	0.0	1.6114570291898498	-0.2484999461013139	0.0	1.1713805393542447	-0.2316046419068888	0.0	1.3906273305598646	-0.32514671654749566	0.0	1.5566408045586204	-0.2623762487104009	0.0
102	3.4132295719844357	0.8885724714260043	-0.5474758452378273	0.0	0.8508417639846159	-0.5538188050331685	0.0	1.0664956892899424	-0.8818175483516484	0.0	1.042695488729137	-1.0696733524732227	0.0	1.2332075233755513	-1.068803139248218	0.0	1.1823091568884216	-1.088941578207206	0.0	1.0022828798836714	-1.077726615143203	0.0	0.9597083495885593	-0.5613531038790035	0.0	1.054196182185901	-0.8689971055330752	0.0	1.0708852276531493	-1.0415417136726342	0.0	1.2120643380094087	-1.053150598342307	0.0	1.1889172207491858	-1.046011082236999	0.0	0.9705463785663521	-1.0504110132950948	0.0	1.1965589326149106	-0.21576656155402885	0.0	1.3617124038674098	-0.04357364353435978	0.0	1.3245996783798315	-0.16513205608735051	0.0	1.145493937401067	-0.24160041649741204	0.0	1.3981981614339087	-0.36954638060875783	0.0	1.596009397220585	-0.28465309353257157	0.0	1.176379737193452	-0.246999667630394	0.0	1.387378623616978	-0.359662934051346	0.0	1.5442210972706398	-0.29434994906504763	0.0
103	3.446692607003891	0.8837151917861974	-0.5501021267601697	0.0	0.8453955228220049	-0.5569319308663795	0.0	1.064353075957224	-0.8769492438378874	0.0	1.0422943786040846	-1.0694092374512993	0.0	1.2252264596819498	-1.0692395395209688	0.0	1.1842719126438004	-1.0903557383057332	0.0	0.999746657811392	-1.0787346984567305	0.0	0.9560530063311238	-0.5637640271165951	0.0	1.0562448222091019	-0.8679606803807141	0.0	1.0662299183450807	-1.0432014759608816	0.0	1.2109836365007114	-1.0545544325891278	0.0	1.1883742595696438	-1.0477292863050833	0.0	0.9649379273289176	-1.053253706267878	0.0	1.2016913073037394	-0.23166353197278758	0.0	1.3681751986312194	-0.05472908516450292	0.0	1.3303590832408134	-0.18504064284373867	0.0	1.14771531575321	-0.2585592512830927	0.0	1.3949121234139679	-0.4086046823649238	0.0	1.580758620132617	-0.32179214856046556	0.0	1.1814544457183442	-0.2635026537754456	0.0	1.383195028891825	-0.39412556323050507	0.0	1.533160198600894	-0.32622707714667126	0.0
